# xmcd
#
# Track frame offsets:
# 150
# 15830
# 37549
# 56656
# 76951
# 96467
# 112681
# 135485
# 149708
# 171500
# 192917
# 212238
# 229346
# 248244
# 267522
# 285823
# 299571
# 315488
# 333556
#
# Disc length: 4657 seconds
#
#
# Revision: 0
# Processed by: cddbd v1.5.2PL0 Copyright (c) Steve Scherf et al.
# Submitted via: FreeRIP 2.941 
#
DISCID=14122f13
DTITLE=Alcione - Perfil
DYEAR=2006
DGENRE=Samba
TTITLE0=meu ébano
TTITLE1=você me vira a cabeça
TTITLE2=não dá mais pra segurar
TTITLE3=uma nova paixão
TTITLE4=pior é que eu gosto
TTITLE5=solfadorelami
TTITLE6=jóia rara
TTITLE7=é o amor
TTITLE8=se não é amor
TTITLE9=duas faces
TTITLE10=o samba vai abalar
TTITLE11=vendaval da vida
TTITLE12=na hora da raiva
TTITLE13=coração de porcelana
TTITLE14=garoto maroto
TTITLE15=umas e outras
TTITLE16=coração de pedra
TTITLE17=corpo fechado
TTITLE18=mister samba
EXTD=
EXTT0=
EXTT1=
EXTT2=
EXTT3=
EXTT4=
EXTT5=
EXTT6=
EXTT7=
EXTT8=
EXTT9=
EXTT10=
EXTT11=
EXTT12=
EXTT13=
EXTT14=
EXTT15=
EXTT16=
EXTT17=
EXTT18=
PLAYORDER=
